<svg width="16" height="16" viewBox="0 0 16 16" fill="none" xmlns="http://www.w3.org/2000/svg">
  <path d="M8 0C3.58 0 0 3.58 0 8C0 11.54 2.29 14.36 5.47 15.35C5.87 15.44 6.02 15.21 6.02 15C6.02 14.82 6.01 14.3 6.01 13.68C4 14.09 3.48 12.97 3.48 12.97C3.13 12.12 2.63 11.88 2.63 11.88C1.95 11.45 2.68 11.46 2.68 11.46C3.43 11.51 3.8 12.27 3.8 12.27C4.5 13.41 5.68 13.09 6.13 12.9C6.22 12.43 6.42 12.12 6.64 11.92C4.82 11.72 2.93 11.02 2.93 7.86C2.93 6.96 3.26 6.22 3.8 5.65C3.71 5.45 3.42 4.61 3.88 3.48C3.88 3.48 4.58 3.28 6.02 4.35C6.66 4.14 7.34 4.05 8.02 4.05C8.7 4.05 9.38 4.14 10.02 4.35C11.46 3.28 12.16 3.48 12.16 3.48C12.62 4.61 12.33 5.45 12.24 5.65C12.78 6.22 13.11 6.96 13.11 7.86C13.11 11.03 11.22 11.71 9.4 11.91C9.69 12.17 9.95 12.69 9.95 13.46C9.95 14.46 9.94 15.21 9.94 15C9.94 15.21 10.09 15.44 10.49 15.35C13.68 14.36 16 11.54 16 8C16 3.58 12.42 0 8 0Z" fill="white"/>
</svg>
